<svg id="visual" viewBox="0 0 540 960" width="540" height="960" xmlns="http://www.w3.org/2000/svg" xmlns:xlink="http://www.w3.org/1999/xlink" version="1.1"><rect x="0" y="0" width="540" height="960" fill="#ffffff"></rect><path d="M0 470L77 516L154 480L231 428L309 419L386 526L463 510L540 425L540 961L463 961L386 961L309 961L231 961L154 961L77 961L0 961Z" fill="#f5730a"></path><path d="M0 641L77 522L154 507L231 491L309 611L386 626L463 551L540 542L540 961L463 961L386 961L309 961L231 961L154 961L77 961L0 961Z" fill="#df6009"></path><path d="M0 558L77 621L154 566L231 554L309 610L386 705L463 586L540 606L540 961L463 961L386 961L309 961L231 961L154 961L77 961L0 961Z" fill="#c94d08"></path><path d="M0 672L77 756L154 783L231 736L309 680L386 732L463 783L540 756L540 961L463 961L386 961L309 961L231 961L154 961L77 961L0 961Z" fill="#b33b06"></path><path d="M0 748L77 800L154 814L231 747L309 753L386 734L463 741L540 749L540 961L463 961L386 961L309 961L231 961L154 961L77 961L0 961Z" fill="#9d2804"></path><path d="M0 893L77 865L154 884L231 894L309 821L386 814L463 920L540 911L540 961L463 961L386 961L309 961L231 961L154 961L77 961L0 961Z" fill="#871400"></path></svg>