<svg id="visual" viewBox="0 0 3840 2160" width="3840" height="2160" xmlns="http://www.w3.org/2000/svg" xmlns:xlink="http://www.w3.org/1999/xlink" version="1.1"><rect x="0" y="0" width="3840" height="2160" fill="#ffffff"></rect><path d="M0 1059L549 1161L1097 1082L1646 963L2194 943L2743 1185L3291 1148L3840 958L3840 2161L3291 2161L2743 2161L2194 2161L1646 2161L1097 2161L549 2161L0 2161Z" fill="#f5730a"></path><path d="M0 1442L549 1175L1097 1143L1646 1106L2194 1376L2743 1410L3291 1240L3840 1220L3840 2161L3291 2161L2743 2161L2194 2161L1646 2161L1097 2161L549 2161L0 2161Z" fill="#df6009"></path><path d="M0 1256L549 1399L1097 1275L1646 1248L2194 1373L2743 1586L3291 1321L3840 1364L3840 2161L3291 2161L2743 2161L2194 2161L1646 2161L1097 2161L549 2161L0 2161Z" fill="#c94d08"></path><path d="M0 1512L549 1702L1097 1764L1646 1657L2194 1532L2743 1647L3291 1762L3840 1703L3840 2161L3291 2161L2743 2161L2194 2161L1646 2161L1097 2161L549 2161L0 2161Z" fill="#b33b06"></path><path d="M0 1684L549 1801L1097 1832L1646 1681L2194 1696L2743 1653L3291 1669L3840 1685L3840 2161L3291 2161L2743 2161L2194 2161L1646 2161L1097 2161L549 2161L0 2161Z" fill="#9d2804"></path><path d="M0 2011L549 1948L1097 1990L1646 2012L2194 1849L2743 1834L3291 2071L3840 2051L3840 2161L3291 2161L2743 2161L2194 2161L1646 2161L1097 2161L549 2161L0 2161Z" fill="#871400"></path></svg>